<svg id="Layer_1" data-name="Layer 1" xmlns="http://www.w3.org/2000/svg" viewBox="0 0 653.04 654.42"><path d="M300.4,1c-114.5,9.2-215.7,77.3-266.8,179.5-15.7,31.6-25.5,62.9-31.4,100.4-2,12.8-2.2,18.3-2.2,46,0,37.7.8,44.9,9.6,82,2.8,11.9,10.3,34,13.8,41,1.7,3.3,3,6.6,3,7.3,0,1.8,9.5,21.2,15.7,31.9,5.6,9.9,17.4,27.9,21.5,32.8,1.6,1.9,4.9,6.2,7.3,9.5,6.3,8.7,26.8,30.9,32.8,35.6,2.9,2.2,7.7,6.4,10.7,9.3,18.7,17.9,56.8,41.3,88.8,54.5,18.7,7.6,47,16.2,61.7,18.6,1.7.3,5,.9,7.5,1.4,14.5,3,44.6,4.3,80.2,3.3,8.1-.2,32.3-3.8,45.3-6.8,108.5-24.6,196.1-101.5,235.5-206.9,4.5-11.8,5.3-14.6,10-32.9,5.6-21.7,7.9-38.1,9.1-65.1,1.1-23.4.5-44.1-1.7-58.5-7.9-52.8-24.5-96.8-51.9-138A327,327,0,0,0,461.5,29,334.24,334.24,0,0,0,300.4,1ZM351,5.88c14.8,1.2,39.5,4.8,40.7,5.9.4.4-2.3,2-6,3.5s-13.2,6.5-20.9,11.2-19.7,11-26.5,14.3c-13.1,6.2-35.6,19.8-47.6,28.8-28.3,21.3-52.8,63.1-67.2,114.9-2.8,9.9-6.4,22.6-8.1,28.3s-4.4,17.3-6.1,25.5c-6.5,32.3-10.3,44.4-18.6,59.6-4.6,8.6-8.6,13.9-21.8,29.5-6.1,7.1-16.6,19.7-23.5,28s-15.5,18.6-19.3,23c-15.8,18.2-51.3,63.3-58.1,73.8-8.9,13.7-15.4,26.2-17.6,34.2l-1.7,5.9-4.6-8.5c-6.6-12.1-15.6-31.3-16.3-34.7-.3-1.6.9-9.4,3.1-18.8,4.7-20.7,8.1-27.8,28-57.4,9.9-14.8,17.9-28.1,21.7-36,3.3-6.9,9.1-18.8,12.8-26.6,7.4-15.2,15.2-26.4,31.1-44.8,5.2-6,13.2-15.2,17.7-20.5,10.2-11.7,20.3-26.6,26-38.4,2.4-4.8,8.3-19,13.1-31.5,14.3-36.7,22.3-53.5,38.6-80.7,10.4-17.3,31.9-49.1,47.2-69.6l12.5-16.7,13.1-1.2c7.3-.6,14.1-1.3,15.2-1.4C313.1,4.68,339.4,5,351,5.88Zm-89.3,18.2c-14.1,18.8-38.8,55.7-49,73.3-13.1,22.7-21.5,40.5-33.8,71.6-17.5,44.1-22.8,53.3-46.7,80.3-28.8,32.5-36.7,44-49.2,71.9-9,20.1-11.8,24.8-29.9,52-17,25.3-20.8,32.7-24.3,47.2-1.4,6-3.2,13-3.8,15.5l-1.2,4.5-4.2-12.5c-2.2-6.9-5-16.4-6.3-21.3l-2.1-8.7,3-6.4A105.66,105.66,0,0,0,18.8,380c3.2-10.9,20-42.7,28-53.1,2.3-3,5.3-7.3,6.6-9.5s8.7-13.1,16.5-24.3c14.8-21.4,17.1-25,27.4-41.4,3.6-5.7,8-12.7,9.9-15.5a60.12,60.12,0,0,0,5.3-10.4c1.1-2.8,3.1-7.3,4.4-9.9,3-6,11.4-28.6,14.9-40.5,1.5-5,3.6-11.3,4.6-14,2.1-5.5,3.1-10.6,5.7-27.5,2.1-14,2.4-51.4.4-63l-1.2-7.5,2.8-2.2c4.5-3.6,27-16.7,38.8-22.6,22.2-11.1,47.6-20,74.5-26.1C274.2,8.58,274,7.88,261.7,24.08Zm151.8-7.3a345.3,345.3,0,0,1,42.4,15.1c16.3,7,15.8,6.5,9,8.4a100.5,100.5,0,0,0-13.9,6.1c-4.4,2.4-13.7,6.7-20.6,9.5-18.8,7.7-60.6,30-79.5,42.6-17.9,11.8-34.2,27-44.5,41.5-10.2,14.3-23.4,46-31.5,75.8-2.4,8.6-5.3,18.1-6.5,21.1s-4.5,12-7.2,20c-9.1,26.1-16.8,39.1-37.6,62.6-19.1,21.8-51.3,52.6-69.2,66.4-26.3,20.1-42,37.5-60,66-16.9,26.8-22.4,37.8-27.5,54.3-1.5,4.9-3.1,8.5-3.5,8s-3.1-4.3-6-8.6l-5.2-7.9,1.6-7c3.2-14.2,16.7-36,40.4-65.8,33.5-41.8,43.4-52.7,68.2-74.5,15.4-13.7,29.4-29.3,37.5-42,12.2-19.1,14.6-28.4,17-65,1.5-23.7,1.8-25.7,5.5-38.5,2.1-7.4,5.2-18.6,6.9-24.8,6.3-22.9,19.6-52.2,32.9-72.2,11.4-17.3,24.7-30.2,44.2-43a335,335,0,0,1,30.8-17.6c8.4-4.1,20.5-10.7,27-14.6,12.1-7.3,34.5-18.6,37.3-18.7C402.3,13.88,407.7,15.18,413.5,16.78Zm73.9,30.8,10.1,5.7-18.3,6.2c-24.9,8.4-36.1,13-56.7,23.4a376.58,376.58,0,0,0-76.6,50.9c-25.3,21.7-35.5,35-52,68.2A414.25,414.25,0,0,0,270,260c-8.5,25.7-16.1,40.9-33.5,66.9-5.8,8.5-14.8,22-20.1,30-15.4,23.1-30.9,40.3-51.5,57-16.9,13.7-45.8,44.6-56.1,60.1-10.8,16.2-19.8,37.2-23.5,54.9-1.1,5.2-2.2,9.6-2.3,9.8s-3.7-3.8-7.7-8.8c-8.5-10.5-8.3-9.5-3.4-24.6,4-12.2,8.9-22,20.2-40.7,22-36.4,33.2-49.1,67.8-76.9,21.1-17,46.8-41.7,66.1-63.7,19.5-22.1,28.9-36.5,35.3-54.1,10.7-29.4,15.4-43.3,17.6-51.9,4.4-17.5,16.5-49.9,23.2-62.1,10.8-19.8,27.9-37.4,52.3-53.7,16.3-10.9,59.8-34.3,76-40.8,6.3-2.6,16-7,21.5-9.7,8-4.1,21-9.1,24.6-9.7C476.9,41.88,481.8,44.48,487.4,47.58ZM516,66c16.7,12,45.7,37.8,48.5,43.1,1.7,3.2-5,5.5-51.6,17.8-9.9,2.6-26.3,7.2-36.4,10.4s-24.7,6.9-32.5,8.5c-15.8,3.2-41.4,12.8-53.3,19.9-9.2,5.5-20,15-30.7,27-9.3,10.5-16.4,20.3-36,49.9-6.7,10-13.1,19.7-14.3,21.5a81,81,0,0,0-5,8.8c-1.5,3-5,9.1-7.8,13.5-6.7,10.5-12.6,20.9-21.6,38-9.1,17.5-23.4,40.9-29.9,48.9-9.7,12.2-22.9,23.8-48.5,42.6-32.5,23.8-47.9,39.4-64,64.5-18.8,29.3-28.9,57.9-27.2,76.7l.5,6.1-9.5-9.4-9.4-9.4.6-5.6c1-9.2,5.1-22.9,10.9-36.3,6.1-14.1,12-24.3,20.6-35,10.7-13.5,34.5-37.9,48.5-49.6,23.9-20.1,36-33.7,53.4-60,5.3-8,13.1-19.5,17.3-25.5,9.2-13.3,21.3-34.3,26.1-45.1,1.9-4.4,6.7-17.4,10.7-28.9,14.4-41.8,30.9-74.5,48.8-96.7,17.3-21.4,60.7-53.9,97.2-72.6,21-10.9,29.5-14.5,55-23.3C502.7,56.68,503.1,56.68,516,66ZM138.4,74c2,13.6,1.5,44.7-.9,60.9-2.6,17.3-2.8,18.1-5.1,24.5-1,2.7-3.3,9.9-5.1,16-3.5,11.8-13.4,38.2-14.9,40a22.38,22.38,0,0,0-2.4,5.1c-2.2,6.4-24.7,43.4-30.5,50.4-1.2,1.4,1.8-3.8,6.6-11.5,22.2-35.7,36.4-70.6,43.9-107.3,3.6-17.8,6.5-48.6,6.4-68.2-.1-18.9-.2-18.5.5-17.9A63.12,63.12,0,0,1,138.4,74Zm-6.2-.9c-.6,2.4-.7,8.8-.4,14.2,1,17.2-3,52.5-8.4,74.4-10.9,44.3-30,82.2-66.8,132.6-21.6,29.4-37.9,57.1-45.8,77.5-2.6,6.8-2.9,7.2-3.6,4.6-1.6-6.2-2-16.4-.8-21.7s12.3-34.5,20.1-52.8c2.2-5.2,8.9-18.7,14.9-30,30.7-58.1,37.8-76.2,48-123,2.2-10.2,5-22.3,6.1-27A96.57,96.57,0,0,0,98,106l.3-7.5,8.8-7.9c6.9-6.2,25.2-21.5,25.9-21.7A31.72,31.72,0,0,1,132.2,73.08Zm-38.3,35c-.7,3.5-2.9,13.9-5,23.3-12.1,55-19,75.4-37.9,111.9-5.1,10-13.4,26-18.4,35.6s-10.9,22.4-13.3,28.5-6.9,17.5-10.1,25.5l-5.9,14.5.4-25.7c.4-21.6.7-26.1,2.1-28.2a10.11,10.11,0,0,0,1.6-4.2c0-2.9,6.1-19.8,9.9-27.4,2-4.1,6.7-12,10.2-17.5,15.8-24.3,19.6-33.2,26.8-62.1,11.4-45.5,11.4-45.7,17.6-53.6,4.2-5.4,22.5-26.7,23.1-26.8C95,101.88,94.5,104.68,93.9,108.08Zm481,12.8,4.5,5.5-13.7.7c-20,.9-41.1,5.3-68.3,14.3-9.1,3-20.5,6.4-25.5,7.6-27.7,6.7-65.9,25.4-94.5,46.2-5.5,4-16.8,14.3-26.9,24.4-14.6,14.7-16.6,16.4-12.7,10.9,2.5-3.5,6.3-9.1,8.5-12.3,11-16.5,30.9-37.4,43.9-46,8.5-5.7,37.8-18.3,45.8-19.7,12.4-2.2,29.2-6.5,46.4-11.8,10.7-3.3,27.2-8,36.5-10.4,24.2-6.2,40.3-10.9,45.5-13.2,2.5-1.1,4.8-2,5.2-1.9S572.4,117.88,574.9,120.88Zm19.3,26a320.84,320.84,0,0,1,44.7,99.5c1.8,7.1,3.9,15.7,4.5,19s1.3,7.1,1.6,8.4c.5,2.4.4,2.3-2.9-.6-2.2-2-7.1-4.3-13.4-6.3-5.4-1.8-11.6-4.5-13.8-6-5.9-4-20.3-8.8-33-11s-21.6-4.3-28.3-6.9c-2.6-1-11.4-2.6-19.7-3.6-20.8-2.4-28.4-1.8-45.5,4-21.3,7.2-31.8,9.5-44,9.5-5.8,0-16.3.7-23.5,1.5s-18,1.9-24.2,2.5c-20.1,1.9-39.8,10.4-66.3,28.5-4.1,2.9-9.9,6.5-12.8,8.1-8.6,4.5-27.8,25.7-35.3,38.6-2.3,4-5.6,9.6-7.4,12.4-5.4,8.4-24.6,44.3-28.2,52.7-3.6,8.6-11.1,32.2-14.3,45-1.1,4.5-3.6,13.1-5.5,19.2-7.4,23.6-16.5,56.3-17.6,63-1.6,9.3-1.5,36.1.1,45.4,1.3,7.8,9.4,31.9,13.1,39.4,5.1,10,10.8,18.6,16.3,24.4,3.2,3.5,5.2,6.1,4.5,5.9s-7.2-2.4-14.4-4.7A321.34,321.34,0,0,1,119.8,575l-9.1-7.6-.7-7.5c-1.9-21,8.1-48.7,28.6-79.5,14.4-21.8,25.4-33.1,50.6-52.3,33.4-25.5,40.4-31,47.5-38,4.3-4.3,10.2-10.9,13.2-14.7,7-9.2,23.2-36,30.7-50.8,6.5-13.1,21.2-38.2,22.9-39.2a9.63,9.63,0,0,0,1.9-2.8c1.2-3.3,17.2-24.6,28.7-38.2,13.1-15.7,36.5-38.3,48.4-46.7,10.6-7.6,40.7-25,52.2-30.2,8.6-3.9,39.3-14.6,42-14.6,1,0,10.7-2.9,21.5-6.4,28-9.2,49.5-13.7,69.2-14.5C585.5,131.28,582.6,129.58,594.2,146.88Zm-533.7-2.2a10.93,10.93,0,0,0-1.1,4.1c0,2.3-4.6,17.7-6,20.3-.5.9-2.3,7.3-3.9,14.2-5.7,23.6-9.9,33.6-22.4,53.1-8.2,12.8-11.7,19.6-16.4,32-1.8,4.9-3,7.4-2.7,5.5,1.6-8.7,13.4-34.7,20.5-45.2,8.2-12,14.6-28.6,18-46.3,2.1-11.4,9.7-34,12.8-38.2C61.2,141.58,62,142,60.5,144.68ZM46.4,170c-1.2,3-3.9,11.9-6.1,19.9-3.8,14.1-6.9,21.5-16.3,38.5-2.4,4.4-6.6,12.8-9.2,18.7-5.1,11.5-6.7,13.7-3.4,4.7,1.1-3,3.4-10.1,5.1-15.9,5.2-17.6,11.6-33.6,21.7-53.9C47.3,163.68,51,158.18,46.4,170Zm488.2,74.4c7,.8,15.2,2.4,18.1,3.5a130.54,130.54,0,0,0,26.1,6.5c14.7,2.4,27.3,6.5,35.1,11.4,2.6,1.7,8.9,4.4,13.9,6.1,11,3.6,17.8,9.2,19,15.3.9,4.9-.9,4.9-6.8-.2-3.6-3.1-5.7-4.1-11.2-5-7-1.3-10-2.5-19.8-8.5-7.5-4.5-27.4-10.8-48.1-15.2-8.8-1.9-20.5-4.6-26-5.9-17.3-4.3-34-5-49.1-2.1-1.6.4.9-.8,5.6-2.4C506.3,242.48,513.3,241.88,534.6,244.38Zm-323.2,15.5c-2.3,29.3-10.6,45.3-37.8,73.1-8.3,8.5-15.1,15.1-15.2,14.7s4.8-6.2,10.6-13c25.1-29.2,33.7-45,40-74,1.5-7,2.9-12.6,3-12.5S211.9,253.58,211.4,259.88Zm304.5-6c4.9.6,13.2,2.2,18.5,3.5s16.3,3.8,24.4,5.5,20,4.6,26.4,6.6c11.3,3.3,26.9,10,25.9,11.1-.3.3-3.6,0-7.4-.6-8.8-1.3-67.1-4.6-78.1-4.3a119.31,119.31,0,0,0-19,2.6c-10.2,2.3-14,3.6-38.6,14a116.43,116.43,0,0,1-24,7.2c-23.4,4.6-77.2,18.3-85.3,21.8-9.4,4-26.1,13.8-34.3,20.1-15.3,11.8-35,43.2-41.4,66-1.4,4.9-3.7,17.5-5.1,28-4.2,31.4-5.9,94.4-3.1,113.5,4.8,31.6,14.9,65.6,27.2,91.8l4.4,9.4-3.8-.6c-2-.3-6.4-.8-9.7-1.1s-9.2-1.1-13.2-1.7l-7.1-1-5-9.2c-7.6-13.7-16.5-33.9-20.5-46.1-6.8-21.3-10.2-50-9.4-79.8.8-32.1,10.1-81.6,20-106.9,15.3-39,35.2-66.8,69.7-97.2,19-16.8,29.2-22.8,49.2-29,15.1-4.7,23-6.2,40.8-7.6,20.2-1.5,26.8-2.6,40-6.4,20.8-6.1,27.4-7.8,35.5-9.1C503.1,252.68,505,252.68,515.9,253.88Zm-59.5,4.6c-9.9,3.2-17.3,4.5-34,5.9-23.4,2-29.4,3-43,6.9-25.8,7.5-35.8,13.6-61.9,37.5-39.9,36.7-64.2,79.2-74.6,130.7-4.1,20.1-8.4,49-9.5,63.4-1.5,20.1.7,50.5,5.6,74.5,2.9,14.4,13.3,40.6,23.5,59.2,6,11.1,4.9,11.4-2.4.6a92.42,92.42,0,0,0-7.9-10.3c-10.7-11.4-16.6-25.6-20-47.7-2.1-13.5-2.3-18-2.2-51.3.1-26.7.5-41.2,1.8-54,2-19.7,3.5-26.9,10.1-49,5.5-18.2,9.9-29.3,15.9-39.8,2.4-4.3,6-11.1,8.1-15.2,4.1-8.4,17.5-31,24.1-41s22.5-26.3,29.7-30.6c3.4-2.1,10-6.3,14.7-9.4,27-18,44-25.3,62.5-27,5.5-.5,14.1-1.4,19-2.1s16.2-1.4,25-1.8,16.9-.8,18-.9S458.9,257.68,456.4,258.48Zm83.8,22.4c6.4.5,21.8,1.4,34.2,2,24.1,1.1,39.4,3,46.2,5.7,2.4,1,9.5,3.1,15.8,4.8l11.5,3,.9,13.8c.5,7.6.6,14,.3,14.3-1.1,1.1-7.5-2.6-13.2-7.5a57,57,0,0,0-12-8c-10.4-4.9-38-14-47.7-15.6-5.1-.9-13.1-2.7-17.8-4a174.61,174.61,0,0,0-41.5-5.9c-11.4,0-10.9-.5,2.5-2.5C527.2,279.78,527.3,279.78,540.2,280.88Zm-470.8,5a15.82,15.82,0,0,1-2.6,3c-.3,0,.4-1.4,1.6-3a12.8,12.8,0,0,1,2.6-3C71.3,282.88,70.6,284.18,69.4,285.88Zm435.7-1.4a2,2,0,0,1-1.9.1c-.8-.3-.5-.6.6-.6S505.5,284.18,505.1,284.48Zm-16,5.8c-5.3,2.4-18.7,9.4-29.7,15.6s-29.5,15.5-41.2,20.9a312.84,312.84,0,0,0-57.7,33.5c-5.4,3.9-12.7,9.1-16.1,11.6-15.4,11-29.1,31.2-35.4,52.1-9.8,32.2-10.8,59-3.6,89,10,41.1,23.9,80.8,34.6,98.7,6.1,10.3,24.5,33.9,27.2,35,3.2,1.3-7,2.2-31.4,2.8l-24.1.7-2.1-3.4c-2.8-4.6-13.1-30-17.5-43.4-3.9-11.6-9.4-33.7-12.4-49.5-1.5-8.1-1.8-14.4-1.6-44,.1-19,.6-40.8,1.3-48.5,1.6-20.2,5.7-46.8,8.6-55.5,5.6-16.7,18.7-39.2,30.3-52.1,8.2-9.2,32.4-24.4,47.1-29.8,6.6-2.3,62.9-16.3,75-18.6,14.7-2.7,20.5-4.3,29.1-8.1,20.4-8.8,26.5-11.3,27.9-11.3C498.2,285.88,494.5,287.88,489.1,290.28Zm50.3.2c5.2.8,14.5,2.8,20.5,4.4s13.5,3.2,16.5,3.5c6.6.9,41.6,12.6,48.3,16.3a67.13,67.13,0,0,1,10.5,7.5c3.1,2.7,7.5,5.8,9.9,6.8l4.3,1.8v5.8l-.1,5.8-2.2-3a42.72,42.72,0,0,0-13-11.6c-2.1-1.1-12.5-4.2-23-6.9s-23.2-6.1-28.1-7.4c-13.2-3.7-39.7-7.6-51.9-7.6-28.5,0-51.3,9.3-97.4,39.8-14.8,9.8-33.4,21.7-41.4,26.4s-17.5,11.2-21.4,14.5c-17.9,15.1-37.4,47.8-44.6,75-2.7,10.1-3.6,33.5-1.9,49.9,1.2,12.6,5.6,37.2,9.1,51.4,2.6,10.3,9.5,28.1,15.9,41,4.3,8.5,19.6,32.5,24.9,39,4.6,5.7,1.8,5.3-4.8-.6-6.8-6.1-18.2-20.7-25.4-32.4-7.5-12.4-17.8-38.7-25.6-65.5-16-55.4-17.3-71.9-8.1-108.3,7.4-29.5,20.1-49.1,41-63.2,3.6-2.4,9-6.2,12-8.5,8.5-6.5,30.6-20.3,40-25,4.7-2.4,15.1-7.2,23.2-10.9s21.5-10.5,30-15.2c16.9-9.6,35.9-19.2,42.8-21.8C509.6,287.68,519.9,287.38,539.4,290.48ZM57.2,303.58c-5,7.6-11.3,16.7-13.8,20.3-10,13.9-25,42.7-29,55.9a50,50,0,0,1-3.6,9.1l-1.5,2.5.6-3.3c2-10.4,15.5-38.7,27.5-57.7,6.9-10.8,27.8-40.5,28.5-40.5C66.2,289.88,62.3,296.08,57.2,303.58Zm496.2,9.2c1.9.5,7.5,1.5,12.3,2.1a161.54,161.54,0,0,1,21,4.7c6.7,1.9,16.9,4.6,22.7,5.9,13.3,3.1,22.7,6.1,26.3,8.7,1.6,1,2.7,2.1,2.5,2.2-.4.5-21.5-5.8-28.1-8.3-8.1-3.2-24.6-8-31.5-9.2-23.5-4.2-51.2-5.9-64-4-14.6,2.2-36.1,10.7-50.9,20.1-5.4,3.4-12.4,7.7-15.6,9.5s-8.4,5.4-11.7,7.9c-6.6,5.1-31.3,19.7-28.9,17.1.3-.3,13.6-9.2,29.5-19.7,36.8-24.2,53.2-32.4,75.4-37.4C519.8,310.68,547.4,311,553.4,312.78Zm-1.5,7.2c24.8,3,45,7.7,60.5,13.9,2.5,1,8.8,3,14,4.5,15,4.2,18.7,6.1,20,10.1a9.94,9.94,0,0,1,.6,5.1c-.4.9-.3,1.9.2,2.2,1.9,1.3-3.4,33.3-8.8,53.9L635.1,422l-7.1-6.9c-7.8-7.5-20.2-16.3-26.3-18.6-2.1-.8-9-2.9-15.3-4.7-16.6-4.8-24-4.6-42.9,1-24.7,7.3-44.2,16-58,25.9-14,10.1-47.7,37-51.8,41.5-18,19.5-33.3,50.6-34.9,71-.9,11.5,1.9,33.3,6.2,46.7,2,6.3,4.5,13.3,5.7,15.5a191.85,191.85,0,0,0,19.3,29.7l6.5,7.7-13.9,4.5c-13.4,4.3-29.9,8.4-30.5,7.5-.1-.2-2.8-3.3-5.8-6.9-31.1-36.4-46.1-72.5-50.6-121.2-1.9-20.1-1.9-18.4,2.8-52.1,1-7.1,9.6-30.4,15-40.7,8.2-15.6,28-31.3,66.6-53A193.65,193.65,0,0,0,438.9,357a88.2,88.2,0,0,1,8.8-6.2c1.2-.6,7.4-4.4,13.7-8.4s14-8.5,17-10c8.3-4.2,25.7-10.5,33-12C519.5,318.78,540,318.58,551.9,320Zm-145.5,50.4a127.85,127.85,0,0,1-11.1,7,218.22,218.22,0,0,0-21.7,15.2c-6.8,5.5-9.2,7.1-6.7,4.4,5.9-6.2,12.8-11.3,26.7-19.7C406.5,369.58,406.4,369.58,406.4,370.38ZM574.7,394a43.9,43.9,0,0,1,8.6,2.2c2.3,1-.7,1.2-17,1.2-19.9,0-21.2-.4-9.4-3C564.5,392.68,567.6,392.58,574.7,394Zm24.7,6.8c6.5,2.5,18.3,10.9,26.7,18.9,5.6,5.5,7.1,7.4,6.6,9.1-.5,1.9-.8,1.8-3.3-1.7s-13-12.1-20.5-16.8c-1.6-1-5.3-3.5-8.1-5.6a44.41,44.41,0,0,0-9-5.3l-3.9-1.5,3.5.6A73.14,73.14,0,0,1,599.4,400.78Zm-61.5.4c-36.2,15.3-82.4,47-106.3,73q-14.7,16.2-22.4,45.7c-6,23.1-4.9,36.8,4.9,61.5,6.9,17.5,11.8,27.2,17.7,35.5,4,5.6,4.2,5.9,1.1,2.5a95.2,95.2,0,0,1-7.9-10.5c-13-19.7-18.7-35.8-21.2-59.2-1.4-13.7-1.4-15.7.1-22.9,4.5-22.6,19.3-49.8,35.2-65,4.5-4.3,34.7-28.3,47.3-37.6,11.4-8.4,30.6-17.8,48-23.4C541.9,398.38,544,398.58,537.9,401.18Zm52.7,2.9c4.5,2,26.1,16.9,30.6,21.2a66.56,66.56,0,0,1,6.3,6.7l2.9,3.7-2.1,5.5-2.1,5.5-8.6-5.2-8.6-5.1-27.6-.2-27.5-.1-10.5,3.3c-5.8,1.9-17.4,5.2-25.8,7.5-12.3,3.2-18.9,5.6-32.9,12.2-25.9,12.3-30.8,17.6-40.3,43.7-5.6,15.3-6.8,20.1-8.5,34.1-2.8,23.3-1.7,35,5,50.2,5.2,11.7,10,19.4,16.7,26.4l5.9,6.1-9.3,4-9.2,4-6.9-9.6c-7.7-10.8-12.4-19.5-19.1-35.8-7.2-17.4-9-25.1-9-37.3.1-20.8,10-49,22.4-63.9,16.9-20.4,59.1-51.6,90.4-67,24.6-12.2,24.8-12.2,46.1-11.8C582.8,402.38,587.7,402.78,590.6,404.08ZM340,441.68a105.73,105.73,0,0,0-5.6,17.9c-4.6,31.5-4.9,37.1-2.5,60.8,2.1,21.2,9.2,49,16.4,65,6.8,15,21.5,37.9,33.1,51.5,6.2,7.4,6.5,8,4.1,8-3.5,0-8.9-5.9-18.2-19.8-18.5-27.7-28-51.4-34.3-85.2-3.8-20.9-4.6-27.3-5.3-42.4-.7-16.3.6-28,4.3-40,2.6-8.2,11.4-28,12.1-27.2C344.3,430.48,342.5,435.68,340,441.68Zm276.4,4.5c4.5,2.9,7.4,5.4,7.2,6.2a49.47,49.47,0,0,1-2.6,6.4l-2.3,5-3.4-5.1c-4.1-6.3-11.6-10.7-23.3-13.9-14.7-4-38.7-1.3-55,6.1-3.8,1.8-10.8,4.5-15.5,6.2-11.4,4-18,8.4-27.4,18.2a85.62,85.62,0,0,0-18.6,28.1c-1.6,3.8-5.7,11.9-9,18-12.4,22.5-15.2,34.7-11.7,50.8,2.9,13.1,12.6,29.8,21.1,36.3l3.7,2.8-4.7,2.4c-3.3,1.6-5,2-5.5,1.3-.3-.7-1.4-.9-2.3-.6-4.2,1.7-16.4-14.9-23.3-31.8-5.3-13.1-6.2-22.3-4-41.7,1.4-12.8,2.5-17.8,6.2-29,9.1-27.6,16.4-37.5,32.4-44.1,4.1-1.7,11.5-5.1,16.3-7.5,6.2-3.1,14.8-6.1,29-9.9,11.1-3,22.5-6.3,25.2-7.4,4.6-1.9,7.2-2,32.5-1.8l27.5.2Zm-31.5,2.2c6.4,1,16.7,4.5,21.2,7.4a19.86,19.86,0,0,1,7.2,8.1l2.9,5.5-2,4a44.65,44.65,0,0,1-2.4,4.4c-.2.2-2.2-1.3-4.6-3.3a53.47,53.47,0,0,0-9.8-6.4c-5-2.5-6.7-2.7-19.4-3-7.9-.2-16.5.1-20,.8-14.3,2.7-33.2,10.5-44.5,18.4-4.2,2.9-9.2,6.1-11.1,7.1s-7.9,4.8-13.2,8.6-9.8,6.6-9.8,6.3,2.1-4.6,4.7-9.6c3.7-7.2,6.5-10.9,13.7-18.2,9.4-9.5,15.9-13.7,26.6-17.1,3-1,9.3-3.5,14-5.5A104,104,0,0,1,569,448C575.8,447.18,577.1,447.18,584.9,448.38Zm.2,21.5a43.48,43.48,0,0,1,11.3,3c4.8,2.4,12,8.7,12,10.4,0,.6-3,6-6.6,11.9L595.2,506l-4.6-6.3c-3.5-4.6-6.2-7-10.2-9-16.1-8.2-48.6-7.5-66.3,1.4-6.2,3.1-5.3,1.5,2-3.5,13.4-9.2,34.5-17.2,48.8-18.6C576.1,468.88,577,468.78,585.1,469.88ZM226,524.08c-.1,39.5.1,43.3,2.2,57.3,3.3,21.6,7.3,31.2,19.7,47.7,5.2,7,9.5,12.9,9.5,13.1s-1.1.2-2.5,0c-4-.8-17.6-15.9-23.8-26.5-5.2-8.8-11.1-23.2-15.9-38.8-1.5-5-2.1-10.5-2.5-23.5-.6-20.1.8-31.4,6-48,1.9-6.1,4.3-13.8,5.2-17.3a63.24,63.24,0,0,1,2-6.2C226,481.88,226.1,500.88,226,524.08Zm346.5-31.3c7.9,2.5,10.7,4.6,16,11.7l3.9,5.4-5.2,7.2c-4.7,6.4-5.3,7-5.6,4.8-1-7.8-6.2-14.3-15.4-19.2-3.8-2-5.6-2.3-16.8-2.2-10.6.1-13.8.5-20.9,2.7a83,83,0,0,0-12.5,5.1c-5.7,3.3-12.9,11.2-16.1,17.7-2.5,4.9-2.7,6-2.2,13.2.8,9.9,4,21.4,8,29A26.41,26.41,0,0,0,520.3,581l3.5,1.2-3.4,2.8c-3.8,3.2-7.5,3.7-10.7,1.4-3.4-2.4-17-22.7-21-31.2-4.9-10.7-5.4-16.8-1.8-25.3a98.46,98.46,0,0,1,15.1-24c5.7-6.3,20.5-13.1,32.9-15C545,489.38,564.9,490.38,572.5,492.78ZM502.1,499c-5.5,4.8-14.5,17.9-18.7,27.2-4.8,10.7-3.9,21.1,3,34.7,3.8,7.5,15.9,24.6,19.9,28.3l3.7,3.4-3.5,2.3c-12.1,8-20.7,13-22.4,13-3.2,0-14.9-12.7-19-20.7-4.4-8.4-7.7-20.4-7.7-27.9,0-6.1,2.8-15.5,7.3-24.1l3.2-6.2.3,7.2c.1,4,1.4,12.8,2.8,19.7,3.3,16.2,11,32.7,18.1,39,4.9,4.3,7,4.9,7.9,2.5.4-1-.5-2.4-2.2-3.8-5.6-4.3-7.7-7.3-12.5-17.2-5.3-11.1-9.9-30.5-9.9-41.4,0-7.4,4-18.1,8.5-22.6,2.8-2.7,24.1-17.5,25.3-17.5C506.5,494.88,504.6,496.68,502.1,499Zm62.5,8.5c8.9,4.6,11.9,8.5,13.1,17.6.5,3.4.1,4.4-4.6,10l-5.2,6.2-.7-7.3c-1.2-11.9-5.9-20.3-14.5-26.1l-4.8-3.2,6.7.5C558.3,505.58,562.8,506.58,564.6,507.48Zm-15.4,3.8c8.2,4.3,13.2,13.9,13.9,26.6.5,8.2.4,8.6-2.2,11l-2.6,2.5,1-2.8c1.9-5,1.3-9.2-2.1-14.3-4.5-6.6-10.7-11.1-16.5-12-13-1.9-23.4,14.4-17.3,27.1,2.8,5.8,5.3,7.5,13.2,8.6,3.5.5,7.8,1.2,9.6,1.5l3.4.6-3.3,3.4c-3.1,3.2-3.7,3.4-9.6,3.4-20.9,0-32.3-22.3-21.5-42.3,3.2-6,7.9-9.6,16.2-12.4C538.9,509.58,545.3,509.28,549.2,511.28Zm-34.2,4.8c-4.3,5.9-5.6,8.6-7.1,15-4,16.2,2.9,31.9,16.9,38.4a26.22,26.22,0,0,0,8.6,2.4h3.5l-2.5,1.9c-1.3,1.1-2.8,1.7-3.1,1.5a6.29,6.29,0,0,0-3.3.7c-5.7,2.6-14.8-2.7-19-11-3-5.8-6.3-17.7-7.1-25.7-.8-7.5,1.2-12,8.8-20.1C515.9,513.58,517.8,512.28,515,516.08Zm28.7,12.2a17.54,17.54,0,0,1,5.7,4.2c2.4,2.7,2.4,2.7-1.2-.3-4.5-3.8-9.3-5.1-11.6-3a12.88,12.88,0,0,1-4,2.2c-2.9.9-4.5,5-3.7,9.4.9,4.8,3,7.6,7.3,9.8l3.7,1.8-3.3.3c-4.3.4-8-2-9.9-6.6-1.4-3.3-1.4-4.2.2-9,1.4-4.7,2.2-5.5,6.3-7.6C538.9,526.58,539.6,526.48,543.7,528.28Zm4,8.3c3.7,3.5.9,11.4-4.1,11.2-4.6-.1-8.7-3.1-9-6.8a7.62,7.62,0,0,1,.8-4.6C537.7,533.58,544.4,533.68,547.7,536.58Zm7.8,9.3c-1.3,4.2-5.6,9-8,8.9a31.34,31.34,0,0,1-4.1-.9c-2.4-.8-2.3-.8.7-.9a11.72,11.72,0,0,0,6.8-3.2c2.9-2.6,3.5-3.8,3.5-7.3s.2-3.8,1.2-2.2C556.3,541.58,556.3,543.18,555.5,545.88Z"/></svg>